<?xml version="1.0" encoding="UTF-8"?>
<svg xmlns="http://www.w3.org/2000/svg" xmlns:xlink="http://www.w3.org/1999/xlink" width="128px" height="128px" viewBox="0 0 128 128" version="1.1">
<g id="surface1">
<path style=" stroke:none;fill-rule:nonzero;fill:rgb(100%,54.901963%,0.784314%);fill-opacity:1;" d="M 36.0625 53.519531 C 36.0625 55.105469 36.253906 56.375 36.542969 57.3125 C 36.875 58.246094 37.316406 59.273438 37.898438 60.375 C 38.128906 60.730469 38.210938 61.0625 38.210938 61.355469 C 38.210938 61.792969 37.941406 62.210938 37.398438 62.648438 L 34.710938 64.421875 C 34.378906 64.671875 34.003906 64.796875 33.609375 64.816406 C 33.171875 64.816406 32.753906 64.609375 32.335938 64.210938 C 31.753906 63.609375 31.253906 62.941406 30.796875 62.210938 C 30.316406 61.398438 29.878906 60.566406 29.484375 59.710938 C 26.152344 63.628906 21.984375 65.589844 16.964844 65.589844 C 13.378906 65.589844 10.527344 64.566406 8.445312 62.523438 C 6.359375 60.460938 5.300781 57.753906 5.300781 54.335938 C 5.300781 50.730469 6.570312 47.773438 9.175781 45.5625 C 11.78125 43.355469 15.214844 42.253906 19.613281 42.253906 C 21.046875 42.253906 22.546875 42.375 24.113281 42.585938 C 25.695312 42.792969 27.320312 43.148438 29.007812 43.519531 L 29.007812 40.414062 C 29.007812 37.1875 28.339844 34.914062 27.007812 33.605469 C 25.652344 32.292969 23.363281 31.644531 20.070312 31.644531 C 18.59375 31.644531 17.050781 31.8125 15.46875 32.183594 C 13.902344 32.578125 12.363281 33.039062 10.882812 33.644531 C 10.382812 33.871094 9.882812 34.039062 9.382812 34.207031 C 9.175781 34.273438 8.949219 34.3125 8.714844 34.332031 C 8.113281 34.332031 7.820312 33.894531 7.820312 33 L 7.820312 30.914062 C 7.820312 30.246094 7.902344 29.726562 8.113281 29.4375 C 8.425781 29.039062 8.839844 28.726562 9.300781 28.539062 C 10.800781 27.769531 12.570312 27.125 14.65625 26.625 C 16.84375 26.058594 19.070312 25.792969 21.300781 25.8125 C 26.382812 25.8125 30.070312 26.957031 32.46875 29.273438 C 34.800781 31.5625 35.988281 35.042969 35.988281 39.730469 L 35.988281 53.523438 Z M 18.792969 60 C 20.1875 60 21.648438 59.746094 23.167969 59.226562 C 24.707031 58.726562 26.0625 57.792969 27.207031 56.519531 C 27.894531 55.707031 28.414062 54.8125 28.667969 53.792969 C 28.921875 52.773438 29.085938 51.519531 29.085938 50.085938 L 29.085938 48.292969 C 27.792969 47.980469 26.5 47.726562 25.167969 47.5625 C 23.855469 47.394531 22.523438 47.3125 21.167969 47.3125 C 18.3125 47.3125 16.230469 47.875 14.835938 49.019531 C 13.421875 50.164062 12.753906 51.792969 12.753906 53.914062 C 12.753906 55.914062 13.253906 57.394531 14.316406 58.414062 C 15.335938 59.480469 16.835938 60 18.796875 60 Z M 52.980469 64.605469 C 52.207031 64.605469 51.6875 64.480469 51.355469 64.167969 C 51.023438 63.914062 50.710938 63.3125 50.460938 62.523438 L 40.460938 29.609375 C 40.273438 29.042969 40.128906 28.484375 40.085938 27.898438 C 40.085938 27.210938 40.414062 26.835938 41.085938 26.835938 L 45.273438 26.835938 C 46.085938 26.835938 46.628906 26.960938 46.914062 27.253906 C 47.273438 27.503906 47.519531 28.109375 47.773438 28.921875 L 54.941406 57.109375 L 61.585938 28.921875 C 61.792969 28.0625 62.042969 27.503906 62.375 27.253906 C 62.894531 26.941406 63.480469 26.792969 64.085938 26.835938 L 67.480469 26.835938 C 68.292969 26.835938 68.855469 26.960938 69.1875 27.253906 C 69.519531 27.503906 69.832031 28.109375 70 28.921875 L 76.726562 57.441406 L 84.085938 28.921875 C 84.355469 28.0625 84.648438 27.503906 84.941406 27.253906 C 85.441406 26.941406 86.023438 26.792969 86.609375 26.835938 L 90.566406 26.835938 C 91.257812 26.835938 91.632812 27.167969 91.632812 27.898438 C 91.632812 28.109375 91.59375 28.316406 91.546875 28.589844 C 91.484375 28.945312 91.378906 29.296875 91.257812 29.652344 L 80.984375 62.546875 C 80.730469 63.402344 80.445312 63.964844 80.089844 64.214844 C 79.609375 64.527344 79.046875 64.675781 78.484375 64.632812 L 74.816406 64.632812 C 74.003906 64.632812 73.460938 64.507812 73.109375 64.214844 C 72.777344 63.925781 72.484375 63.359375 72.316406 62.507812 L 65.710938 35.046875 L 59.148438 62.464844 C 58.941406 63.320312 58.6875 63.878906 58.335938 64.171875 C 58.003906 64.464844 57.398438 64.589844 56.628906 64.589844 Z M 107.667969 65.753906 C 105.460938 65.753906 103.253906 65.480469 101.128906 64.980469 C 99.003906 64.480469 97.335938 63.914062 96.230469 63.273438 C 95.542969 62.894531 95.089844 62.480469 94.921875 62.085938 C 94.753906 61.707031 94.648438 61.3125 94.648438 60.894531 L 94.648438 58.726562 C 94.648438 57.832031 95.003906 57.394531 95.628906 57.394531 C 95.878906 57.394531 96.148438 57.4375 96.398438 57.519531 C 96.652344 57.625 97.042969 57.792969 97.464844 57.957031 C 98.925781 58.601562 100.484375 59.101562 102.152344 59.4375 C 103.859375 59.792969 105.507812 59.957031 107.214844 59.957031 C 109.902344 59.957031 111.988281 59.476562 113.425781 58.539062 C 114.839844 57.683594 115.695312 56.144531 115.652344 54.5 C 115.671875 53.394531 115.257812 52.332031 114.507812 51.519531 C 113.734375 50.726562 112.28125 50 110.195312 49.3125 L 104.027344 47.394531 C 100.925781 46.414062 98.613281 44.980469 97.214844 43.0625 C 95.839844 41.292969 95.09375 39.128906 95.070312 36.875 C 95.070312 35.085938 95.46875 33.519531 96.238281 32.148438 C 97.011719 30.792969 98.03125 29.609375 99.304688 28.667969 C 100.574219 27.6875 102.03125 26.960938 103.71875 26.460938 C 105.429688 25.941406 107.21875 25.730469 109.097656 25.730469 C 110.03125 25.730469 111.011719 25.773438 111.953125 25.898438 C 112.933594 26.023438 113.828125 26.191406 114.722656 26.378906 C 115.554688 26.589844 116.367188 26.796875 117.140625 27.046875 C 117.910156 27.300781 118.515625 27.566406 118.933594 27.820312 C 119.433594 28.070312 119.867188 28.445312 120.203125 28.882812 C 120.496094 29.300781 120.621094 29.800781 120.601562 30.300781 L 120.601562 32.300781 C 120.601562 33.195312 120.242188 33.65625 119.621094 33.65625 C 119.035156 33.59375 118.496094 33.429688 117.996094 33.15625 C 115.433594 32.011719 112.640625 31.449219 109.828125 31.488281 C 107.390625 31.488281 105.472656 31.863281 104.160156 32.675781 C 102.828125 33.488281 102.160156 34.714844 102.160156 36.46875 C 102.160156 37.65625 102.574219 38.675781 103.433594 39.488281 C 104.289062 40.300781 105.867188 41.113281 108.121094 41.84375 L 114.160156 43.738281 C 117.222656 44.71875 119.453125 46.097656 120.765625 47.84375 C 122.074219 49.570312 122.722656 51.570312 122.722656 53.804688 C 122.722656 55.617188 122.328125 57.285156 121.621094 58.738281 C 120.847656 60.175781 119.828125 61.449219 118.515625 62.492188 C 117.183594 63.554688 115.621094 64.304688 113.789062 64.867188 C 111.871094 65.453125 109.871094 65.765625 107.683594 65.765625 Z M 115.726562 86.4375 C 101.707031 96.792969 81.371094 102.269531 63.871094 102.269531 C 39.351562 102.269531 17.246094 93.203125 0.558594 78.125 C -0.753906 76.9375 0.4375 75.3125 2.019531 76.269531 C 20.058594 86.726562 42.332031 93.078125 65.351562 93.078125 C 80.890625 93.078125 97.957031 89.828125 113.683594 83.203125 C 116.015625 82.121094 118.015625 84.722656 115.722656 86.433594 Z M 121.5625 79.792969 C 119.773438 77.5 109.707031 78.6875 105.167969 79.253906 C 103.8125 79.421875 103.585938 78.210938 104.835938 77.316406 C 112.835938 71.710938 125.980469 73.316406 127.523438 75.191406 C 129.042969 77.128906 127.089844 90.277344 119.609375 96.566406 C 118.464844 97.546875 117.335938 97.046875 117.855469 95.757812 C 119.5625 91.546875 123.355469 82.066406 121.5625 79.796875 Z M 121.5625 79.792969 "/>
</g>
</svg>
