<?xml version="1.0" encoding="UTF-8"?>
<svg xmlns="http://www.w3.org/2000/svg" xmlns:xlink="http://www.w3.org/1999/xlink" width="128px" height="128px" viewBox="0 0 128 128" version="1.1">
<g id="surface1">
<path style=" stroke:none;fill-rule:nonzero;fill:rgb(3.921569%,81.176472%,51.372552%);fill-opacity:1;" d="M 42.683594 128 C 54.464844 128 64.015625 118.449219 64.015625 106.667969 L 64.015625 85.332031 L 42.683594 85.332031 C 30.902344 85.332031 21.351562 94.882812 21.351562 106.667969 C 21.351562 118.449219 30.902344 128 42.683594 128 Z M 42.683594 128 "/>
<path style=" stroke:none;fill-rule:nonzero;fill:rgb(63.529414%,34.901962%,100%);fill-opacity:1;" d="M 21.351562 64 C 21.351562 52.21875 30.902344 42.667969 42.683594 42.667969 L 64.015625 42.667969 L 64.015625 85.332031 L 42.683594 85.332031 C 30.902344 85.332031 21.351562 75.78125 21.351562 64 Z M 21.351562 64 "/>
<path style=" stroke:none;fill-rule:nonzero;fill:rgb(94.901961%,30.588236%,11.764706%);fill-opacity:1;" d="M 21.351562 21.332031 C 21.351562 9.558594 30.890625 0.0078125 42.667969 0 L 64 0 L 64 42.667969 L 42.683594 42.667969 C 30.902344 42.667969 21.351562 33.117188 21.351562 21.332031 Z M 21.351562 21.332031 "/>
<path style=" stroke:none;fill-rule:nonzero;fill:rgb(100%,44.705883%,38.431373%);fill-opacity:1;" d="M 64.015625 0 L 85.351562 0 C 97.132812 0 106.683594 9.550781 106.683594 21.332031 C 106.683594 33.117188 97.132812 42.667969 85.351562 42.667969 L 64.015625 42.667969 Z M 64.015625 0 "/>
<path style=" stroke:none;fill-rule:nonzero;fill:rgb(10.196079%,73.725492%,99.607843%);fill-opacity:1;" d="M 106.683594 64 C 106.683594 75.78125 97.132812 85.332031 85.351562 85.332031 C 73.566406 85.332031 64.015625 75.78125 64.015625 64 C 64.015625 52.21875 73.566406 42.667969 85.351562 42.667969 C 97.132812 42.667969 106.683594 52.21875 106.683594 64 Z M 106.683594 64 "/>
</g>
</svg>
