<?xml version="1.0" encoding="UTF-8"?>
<svg xmlns="http://www.w3.org/2000/svg" xmlns:xlink="http://www.w3.org/1999/xlink" width="128px" height="128px" viewBox="0 0 128 128" version="1.1">
<g id="surface1">
<path style=" stroke:none;fill-rule:evenodd;fill:rgb(30.980393%,66.666669%,25.490198%);fill-opacity:1;" d="M 82.804688 34.230469 C 80.199219 26.121094 76.023438 18.945312 70.136719 12.769531 C 68.648438 11.210938 66.992188 9.777344 65.957031 7.835938 C 65.300781 6.605469 64.675781 5.359375 64.035156 4.121094 L 63.628906 3.097656 L 63.515625 3.5 C 63.464844 5.519531 62.320312 6.890625 60.894531 8.167969 C 59.292969 9.605469 57.800781 11.167969 56.261719 12.679688 L 51.523438 18.90625 L 47.695312 25.949219 L 45.132812 32.863281 L 45.058594 32.972656 C 43.648438 37.601562 42.953125 42.359375 42.613281 47.164062 C 42.484375 48.972656 42.632812 50.804688 42.730469 52.621094 C 42.878906 55.21875 43.328125 57.769531 44.003906 60.28125 C 46.460938 69.40625 51.449219 76.976562 58.265625 83.40625 C 59.53125 84.601562 60.902344 85.691406 62.222656 86.824219 L 62.808594 88.835938 L 63.351562 91.949219 L 63.613281 95.203125 C 63.609375 95.863281 63.582031 96.527344 63.621094 97.183594 C 63.632812 97.351562 63.851562 97.507812 63.976562 97.671875 L 65.078125 98.058594 L 66.230469 98.507812 L 66.03125 95.613281 L 66.023438 92.765625 L 66.421875 88.429688 L 66.707031 87.484375 L 67.53125 86.023438 C 68.550781 85.207031 69.640625 84.460938 70.570312 83.550781 C 72.246094 81.902344 73.921875 80.234375 75.421875 78.429688 C 77.367188 76.089844 79.042969 73.53125 80.390625 70.792969 C 81.289062 68.960938 82.136719 67.089844 82.839844 65.175781 C 83.457031 63.488281 83.839844 61.710938 84.324219 59.976562 L 84.453125 59.601562 C 85.460938 54.910156 85.628906 50.175781 85.257812 45.410156 C 84.960938 41.570312 84.058594 37.863281 82.804688 34.230469 Z M 62.902344 84.503906 C 63.058594 83.734375 63.246094 82.96875 63.386719 82.191406 C 63.246094 82.96875 63.058594 83.734375 62.902344 84.503906 Z M 66.320312 85.035156 L 65.675781 83.621094 L 66.320312 85.035156 L 67.269531 85.847656 Z M 106.472656 102.964844 C 105.648438 101.382812 104.4375 100.179688 102.835938 99.390625 C 101.492188 98.730469 100.050781 98.441406 98.566406 98.398438 C 97.453125 98.367188 96.335938 98.421875 95.222656 98.4375 C 94.234375 98.449219 93.242188 98.464844 92.253906 98.457031 C 91.09375 98.445312 89.929688 98.410156 88.765625 98.378906 C 88.574219 98.371094 88.4375 98.410156 88.347656 98.605469 C 88.203125 98.910156 88.039062 99.203125 87.863281 99.539062 L 88.058594 99.601562 C 88.636719 99.703125 89.214844 99.789062 89.789062 99.90625 C 90.527344 100.050781 90.859375 100.476562 90.894531 101.097656 C 90.945312 101.984375 90.964844 102.871094 90.960938 103.761719 C 90.945312 107.273438 90.921875 110.789062 90.894531 114.300781 C 90.894531 114.53125 90.890625 114.773438 90.824219 114.992188 C 90.753906 115.246094 90.675781 115.570312 90.484375 115.695312 C 90.160156 115.910156 89.757812 116.058594 89.371094 116.121094 C 88.808594 116.210938 88.714844 116.238281 88.539062 116.789062 L 88.464844 117.066406 C 88.382812 117.367188 88.425781 117.425781 88.738281 117.429688 C 90.542969 117.449219 92.34375 117.488281 94.144531 117.480469 C 95.785156 117.476562 97.429688 117.574219 99.066406 117.265625 C 100.613281 116.976562 102.058594 116.464844 103.375 115.601562 C 105.085938 114.480469 106.316406 112.984375 106.964844 111.027344 C 107.488281 109.449219 107.605469 107.839844 107.429688 106.1875 C 107.308594 105.046875 107 103.976562 106.472656 102.964844 Z M 103.316406 112.625 C 102.351562 114.417969 100.914062 115.617188 98.859375 115.933594 C 97.574219 116.128906 96.285156 116.074219 95.058594 115.585938 C 94.28125 115.277344 93.992188 114.605469 93.96875 113.8125 C 93.945312 113.035156 93.933594 112.257812 93.933594 111.480469 C 93.929688 108.746094 93.929688 106.015625 93.933594 103.28125 C 93.9375 102.421875 93.949219 101.558594 93.964844 100.695312 C 93.976562 100.089844 94.101562 99.886719 94.691406 99.835938 C 97.289062 99.617188 99.765625 99.898438 101.824219 101.726562 C 103.09375 102.855469 103.820312 104.296875 104.121094 105.953125 C 104.246094 106.640625 104.28125 107.347656 104.359375 108.046875 C 104.296875 109.644531 104.082031 111.199219 103.316406 112.625 Z M 125.105469 109.664062 C 124.59375 108.417969 123.625 107.636719 122.40625 107.136719 C 121.988281 106.964844 121.558594 106.824219 121.109375 106.660156 L 121.269531 106.558594 C 121.753906 106.246094 122.292969 105.996094 122.710938 105.613281 C 123.726562 104.683594 124.148438 103.511719 123.949219 102.121094 C 123.761719 100.796875 123.101562 99.828125 121.925781 99.195312 C 120.855469 98.628906 119.699219 98.417969 118.507812 98.421875 C 116.441406 98.421875 114.371094 98.453125 112.308594 98.457031 C 111.59375 98.457031 110.882812 98.40625 110.171875 98.394531 C 110.03125 98.394531 109.828125 98.429688 109.769531 98.519531 C 109.605469 98.769531 109.496094 99.058594 109.382812 99.335938 C 109.316406 99.496094 109.382812 99.585938 109.566406 99.609375 C 110.0625 99.679688 110.558594 99.765625 111.058594 99.839844 C 111.746094 99.941406 112.078125 100.300781 112.121094 100.992188 L 112.128906 101.402344 C 112.128906 103.558594 112.136719 105.714844 112.128906 107.867188 C 112.117188 110.019531 112.09375 112.171875 112.066406 114.324219 C 112.0625 114.59375 112.027344 114.867188 111.988281 115.136719 C 111.929688 115.542969 111.710938 115.820312 111.296875 115.910156 L 110.117188 116.140625 C 109.980469 116.171875 109.777344 116.164062 109.722656 116.253906 C 109.507812 116.574219 109.332031 116.929688 109.355469 117.355469 L 109.476562 117.386719 L 113.429688 117.484375 L 114.222656 117.480469 C 115.589844 117.464844 116.960938 117.492188 118.328125 117.421875 C 119.804688 117.347656 121.195312 116.910156 122.480469 116.152344 C 123.847656 115.347656 124.898438 114.289062 125.273438 112.691406 C 125.511719 111.671875 125.511719 110.648438 125.105469 109.664062 Z M 115.0625 100.484375 C 115.070312 100.050781 115.261719 99.863281 115.691406 99.851562 C 116.75 99.820312 117.800781 99.828125 118.824219 100.191406 C 120.144531 100.664062 120.957031 101.804688 120.941406 103.199219 C 120.9375 103.734375 120.945312 104.261719 120.746094 104.777344 C 120.359375 105.789062 119.613281 106.324219 118.554688 106.425781 C 118.003906 106.484375 117.445312 106.488281 116.953125 106.515625 L 115.3125 106.441406 C 115.09375 106.433594 114.996094 106.339844 115 106.113281 Z M 121.867188 113.976562 C 121.339844 115.128906 120.375 115.734375 119.167969 115.941406 C 118.203125 116.109375 117.230469 116.0625 116.277344 115.816406 C 115.570312 115.636719 115.28125 115.066406 115.140625 114.4375 C 115.046875 114.019531 115.0625 113.515625 115.054688 113.078125 C 115.042969 112.402344 115.050781 111 115.050781 111 L 115.039062 111 C 115.039062 110 115.039062 109.132812 115.035156 108.175781 C 115.035156 107.96875 115.070312 107.863281 115.320312 107.871094 C 116.21875 107.898438 117.121094 107.914062 118.019531 107.949219 C 118.820312 107.980469 119.574219 108.21875 120.28125 108.601562 C 121.355469 109.179688 122.003906 110.066406 122.183594 111.289062 C 122.320312 112.214844 122.261719 113.121094 121.867188 113.976562 Z M 23.28125 115.054688 L 23.300781 109.617188 C 23.304688 108.800781 23.199219 107.996094 22.933594 107.222656 C 22.191406 105.085938 20.15625 104.113281 18.03125 104.878906 C 17.066406 105.226562 16.203125 105.757812 15.378906 106.355469 C 14.894531 106.707031 14.894531 106.707031 14.546875 106.207031 C 13.5625 104.796875 12.15625 104.3125 10.519531 104.835938 C 9.460938 105.171875 8.53125 105.746094 7.65625 106.414062 C 7.574219 106.476562 7.410156 106.542969 7.359375 106.507812 C 7.277344 106.445312 7.222656 106.300781 7.222656 106.191406 L 7.28125 105.226562 C 7.289062 105.023438 7.25 104.820312 7.230469 104.605469 C 6.832031 104.742188 6.515625 104.878906 6.1875 104.960938 C 5.164062 105.210938 4.132812 105.441406 3.105469 105.675781 C 2.855469 105.730469 2.59375 105.808594 2.566406 106.09375 C 2.542969 106.375 2.8125 106.421875 3.023438 106.503906 C 3.464844 106.683594 3.90625 106.871094 4.34375 107.0625 C 4.710938 107.226562 4.847656 107.519531 4.84375 107.914062 C 4.835938 109.597656 4.847656 111.28125 4.839844 112.964844 C 4.835938 113.652344 4.800781 114.335938 4.769531 115.019531 C 4.742188 115.628906 4.535156 115.882812 3.949219 116.035156 C 3.636719 116.117188 3.320312 116.171875 3.003906 116.246094 C 2.9375 116.261719 2.816406 116.304688 2.816406 116.339844 C 2.804688 116.636719 2.789062 116.941406 2.839844 117.230469 C 2.847656 117.28125 3.160156 117.28125 3.335938 117.300781 L 3.453125 117.292969 C 4.664062 117.277344 5.878906 117.257812 7.089844 117.242188 C 7.734375 117.238281 8.375 117.242188 9.074219 117.242188 L 9.148438 116.273438 C 8.746094 116.199219 8.390625 116.144531 8.039062 116.066406 C 7.488281 115.949219 7.257812 115.65625 7.242188 115.101562 L 7.230469 114.308594 C 7.226562 112.253906 7.21875 110.195312 7.21875 108.140625 C 7.21875 107.839844 7.34375 107.605469 7.605469 107.425781 C 8.160156 107.050781 8.75 106.75 9.402344 106.582031 C 10.773438 106.230469 11.964844 106.71875 12.492188 107.886719 C 12.65625 108.253906 12.789062 108.660156 12.824219 109.0625 C 13.019531 111.125 12.9375 113.1875 12.820312 115.25 C 12.792969 115.695312 12.585938 115.917969 12.144531 116.027344 L 11.113281 116.246094 C 11.03125 116.265625 10.910156 116.210938 10.902344 116.28125 C 10.882812 116.566406 10.894531 117.003906 10.894531 117.003906 L 11.140625 117.003906 L 14.28125 117.105469 C 15.144531 117.101562 16.003906 117.207031 16.863281 117.230469 C 17.019531 117.230469 17.15625 117.253906 17.164062 117.078125 C 17.179688 116.796875 17.167969 116.53125 17.152344 116.246094 L 16.988281 116.21875 L 16.105469 116.019531 C 15.507812 115.878906 15.300781 115.652344 15.300781 115.046875 C 15.292969 113.558594 15.3125 112.070312 15.300781 110.582031 C 15.292969 109.730469 15.261719 108.882812 15.203125 108.03125 C 15.191406 107.804688 15.226562 107.65625 15.40625 107.53125 C 15.933594 107.152344 16.507812 106.863281 17.136719 106.695312 C 19.070312 106.1875 20.65625 107.246094 20.757812 109.242188 C 20.855469 111.164062 20.8125 113.097656 20.796875 115.023438 C 20.792969 115.695312 20.570312 115.898438 19.910156 116.078125 L 19.683594 116.136719 C 19.003906 116.300781 19.011719 116.300781 19.050781 117.019531 C 19.0625 117.242188 19.125 117.300781 19.367188 117.296875 C 20.746094 117.265625 22.125 117.257812 23.503906 117.246094 C 24.066406 117.238281 24.632812 117.246094 25.246094 117.246094 L 25.371094 116.308594 C 24.832031 116.164062 24.335938 116.058594 23.855469 115.902344 C 23.429688 115.757812 23.28125 115.503906 23.28125 115.054688 Z M 70.769531 106.8125 C 71.339844 106.285156 71.34375 105.589844 71.183594 104.816406 C 70.734375 105.289062 70.230469 105.507812 69.65625 105.546875 C 68.882812 105.601562 68.128906 105.535156 67.410156 105.226562 C 65.46875 104.394531 63.554688 104.453125 61.648438 105.367188 C 60.046875 106.136719 59.058594 107.332031 58.960938 109.148438 C 58.898438 110.3125 59.117188 111.410156 59.890625 112.335938 C 60.355469 112.890625 60.953125 113.25 61.628906 113.496094 C 61.917969 113.605469 61.9375 113.742188 61.695312 113.929688 C 61.519531 114.066406 61.328125 114.1875 61.140625 114.308594 C 60.734375 114.5625 60.324219 114.816406 59.914062 115.0625 C 59.671875 115.207031 59.589844 115.394531 59.667969 115.679688 C 59.898438 116.515625 60.496094 117 61.238281 117.355469 L 61.511719 117.542969 L 61.273438 117.78125 C 60.542969 118.371094 59.785156 118.929688 59.089844 119.554688 C 58.503906 120.082031 58.3125 120.789062 58.488281 121.566406 C 58.847656 123.121094 59.878906 124.085938 61.339844 124.527344 C 63.898438 125.300781 66.300781 124.855469 68.488281 123.34375 C 69.785156 122.441406 70.71875 121.273438 71 119.664062 C 71.316406 117.855469 70.3125 116.285156 68.511719 115.960938 C 67.324219 115.742188 66.105469 115.683594 64.902344 115.542969 C 64.339844 115.480469 63.769531 115.441406 63.222656 115.3125 C 62.757812 115.203125 62.527344 114.824219 62.570312 114.453125 C 62.613281 114.089844 63 113.75 63.441406 113.714844 C 64.335938 113.644531 65.207031 113.503906 66.03125 113.128906 C 68.207031 112.132812 69.21875 110.390625 68.964844 108.039062 C 68.933594 107.726562 68.859375 107.414062 68.796875 107.046875 C 69.492188 107.160156 70.207031 107.339844 70.769531 106.8125 Z M 64.160156 117.832031 C 65.046875 117.855469 66.054688 117.910156 67.03125 118.195312 C 67.886719 118.445312 68.59375 118.886719 68.800781 119.84375 C 69.050781 120.996094 68.496094 122.148438 67.375 122.765625 C 66.328125 123.34375 65.191406 123.390625 64.035156 123.273438 C 63.046875 123.171875 62.160156 122.828125 61.445312 122.097656 C 60.507812 121.136719 60.503906 119.808594 61.441406 118.851562 C 62.28125 117.992188 62.730469 117.816406 64.160156 117.832031 Z M 66.378906 110.867188 C 65.863281 112.519531 64.359375 112.746094 63.183594 112.21875 C 62.179688 111.769531 61.742188 110.886719 61.515625 109.878906 C 61.425781 109.488281 61.40625 109.085938 61.351562 108.691406 C 61.375 108.121094 61.46875 107.574219 61.714844 107.0625 C 62.464844 105.484375 64.308594 105.578125 65.328125 106.292969 C 65.769531 106.601562 66.074219 107.015625 66.265625 107.507812 C 66.6875 108.613281 66.730469 109.738281 66.378906 110.867188 Z M 57.007812 116.132812 C 56.652344 116.074219 56.296875 116 55.953125 115.894531 C 55.34375 115.710938 55.269531 115.597656 55.261719 114.953125 C 55.246094 113.160156 55.234375 111.367188 55.214844 109.578125 C 55.203125 108.773438 55.105469 107.976562 54.859375 107.207031 C 54.210938 105.175781 52.21875 104.085938 50.226562 104.6875 C 49.121094 105.019531 48.175781 105.636719 47.292969 106.363281 L 46.96875 106.613281 L 46.972656 106.28125 C 46.992188 105.898438 47.03125 105.519531 47.03125 105.136719 C 47.027344 104.9375 46.953125 104.738281 46.914062 104.5625 C 46.160156 104.789062 45.488281 105.019531 44.796875 105.191406 C 44.105469 105.367188 43.402344 105.484375 42.703125 105.628906 C 42.355469 105.695312 42.101562 105.90625 42.105469 106.144531 C 42.117188 106.484375 42.394531 106.546875 42.640625 106.648438 C 43.082031 106.828125 43.523438 107.011719 43.960938 107.207031 C 44.269531 107.347656 44.398438 107.605469 44.394531 107.9375 C 44.371094 110.269531 44.359375 112.597656 44.324219 114.929688 C 44.316406 115.664062 44.128906 115.859375 43.40625 116.019531 L 43.089844 116.082031 C 42.417969 116.199219 42.398438 116.226562 42.445312 116.933594 L 42.449219 117.050781 C 42.441406 117.320312 42.5625 117.410156 42.839844 117.40625 C 44.621094 117.386719 46.402344 117.375 48.183594 117.382812 C 48.945312 117.386719 49.027344 117.324219 49.011719 116.539062 L 48.976562 116.203125 C 48.539062 116.132812 48.121094 116.078125 47.714844 115.988281 C 47.285156 115.894531 47.132812 115.71875 47.09375 115.285156 C 47.058594 114.886719 47.046875 114.484375 47.039062 114.085938 C 47.019531 112.253906 47.003906 110.421875 46.996094 108.59375 C 46.992188 108.132812 47.078125 107.703125 47.503906 107.40625 C 48.144531 106.957031 48.851562 106.695312 49.628906 106.644531 C 51.214844 106.535156 52.421875 107.476562 52.507812 109.058594 C 52.613281 111.011719 52.582031 112.972656 52.609375 114.929688 C 52.609375 115.074219 52.585938 115.222656 52.5625 115.367188 C 52.527344 115.652344 52.386719 115.867188 52.097656 115.941406 C 51.8125 116.015625 51.527344 116.082031 51.238281 116.125 C 50.804688 116.191406 50.796875 116.1875 50.765625 116.621094 L 50.773438 116.914062 C 50.824219 117.421875 50.828125 117.40625 51.339844 117.402344 C 53.0625 117.386719 54.78125 117.378906 56.503906 117.378906 C 57.222656 117.382812 57.273438 117.347656 57.28125 116.605469 L 57.277344 116.429688 C 57.289062 116.238281 57.203125 116.164062 57.007812 116.132812 Z M 81.0625 104.808594 C 79.257812 104.367188 77.542969 104.695312 75.917969 105.535156 C 74.339844 106.355469 73.28125 107.617188 72.878906 109.359375 C 72.472656 111.125 72.667969 112.84375 73.445312 114.480469 C 73.953125 115.542969 74.734375 116.367188 75.796875 116.898438 C 78.28125 118.152344 81.324219 117.585938 83.273438 115.910156 C 84.8125 114.589844 85.378906 112.828125 85.410156 110.652344 C 85.390625 110.433594 85.367188 110.015625 85.3125 109.597656 C 84.984375 107.226562 83.34375 105.367188 81.0625 104.808594 Z M 82.429688 113.964844 C 81.949219 115.851562 80.316406 116.6875 78.476562 116.039062 C 77.539062 115.710938 76.835938 115.078125 76.363281 114.226562 C 75.277344 112.265625 75.070312 110.183594 75.6875 108.042969 C 76.101562 106.621094 77.273438 105.839844 78.664062 105.9375 C 79.910156 106.027344 80.871094 106.625 81.574219 107.636719 C 82.3125 108.707031 82.601562 109.925781 82.675781 111.203125 C 82.6875 111.40625 82.679688 111.613281 82.679688 111.820312 L 82.765625 111.828125 C 82.65625 112.542969 82.605469 113.269531 82.429688 113.964844 Z M 35.664062 104.777344 C 33.765625 104.34375 31.984375 104.773438 30.339844 105.738281 C 28.914062 106.570312 27.992188 107.816406 27.640625 109.445312 C 27.308594 110.96875 27.441406 112.460938 27.980469 113.917969 C 28.308594 114.808594 28.808594 115.589844 29.535156 116.195312 C 31.070312 117.476562 32.863281 117.800781 34.773438 117.445312 C 36.390625 117.140625 37.808594 116.425781 38.84375 115.082031 C 39.808594 113.824219 40.175781 112.382812 40.214844 110.820312 C 40.15625 110.324219 40.144531 109.820312 40.039062 109.339844 C 39.515625 106.925781 38.105469 105.335938 35.664062 104.777344 Z M 37.214844 113.957031 C 36.75 115.835938 35.09375 116.691406 33.265625 116.046875 C 32.09375 115.628906 31.328125 114.769531 30.847656 113.667969 C 30.070312 111.898438 29.914062 110.058594 30.414062 108.191406 C 30.800781 106.765625 31.957031 105.714844 33.726562 105.964844 C 34.8125 106.121094 35.660156 106.675781 36.292969 107.558594 C 37.148438 108.75 37.429688 110.113281 37.46875 111.546875 L 37.46875 111.839844 L 37.539062 111.851562 C 37.433594 112.554688 37.382812 113.269531 37.214844 113.957031 Z M 37.214844 113.957031 "/>
</g>
</svg>
