<?xml version="1.0" encoding="UTF-8"?>
<svg xmlns="http://www.w3.org/2000/svg" xmlns:xlink="http://www.w3.org/1999/xlink" width="128px" height="128px" viewBox="0 0 128 128" version="1.1">
<g id="surface1">
<path style=" stroke:none;fill-rule:nonzero;fill:rgb(90.980393%,49.803922%,0%);fill-opacity:1;" d="M 14.929688 25.671875 C 17.441406 25.046875 19.652344 24.800781 22.03125 24.710938 C 21.546875 28.128906 17.226562 28.53125 14.929688 25.671875 Z M 60.179688 84.382812 C 54.3125 80.546875 51.59375 85.285156 44.121094 85.363281 C 39.632812 85.410156 33.550781 83.890625 26.097656 79.152344 C 32.125 87.796875 39.214844 92.769531 46.738281 94.929688 C 61.1875 99.085938 64 91.773438 77.925781 96.550781 C 75.839844 93.199219 71.640625 91.625 67.417969 90.78125 C 63.15625 89.925781 60.199219 90.953125 56.726562 89.414062 C 53.757812 88.0625 53.949219 85.046875 60.179688 84.382812 Z M 59.890625 40.289062 C 63.035156 44.648438 66.621094 47.917969 72.683594 50.578125 C 80.621094 53.800781 88.675781 54.351562 96.914062 51.507812 C 103.308594 49.300781 107.910156 51.457031 110.296875 57.667969 C 110.6875 50.148438 106.492188 46.867188 102.96875 45.160156 C 95.429688 41.5 87.203125 47.960938 78.035156 47.175781 C 71.941406 46.652344 66.464844 45.382812 59.890625 40.289062 Z M 85.707031 80.148438 C 84.261719 81.40625 82 82.648438 80.667969 82.765625 C 80.746094 82.90625 80.765625 82.976562 80.789062 82.976562 C 87.882812 82.980469 95.945312 81.929688 102.136719 75.257812 C 106.195312 70.886719 106.734375 68.335938 114.507812 69.691406 C 109.226562 65.464844 100.332031 66.230469 94 71.941406 C 91.421875 74.261719 89.375 77.066406 85.707031 80.148438 Z M 66.378906 67.949219 C 74.125 71.835938 83.84375 71.773438 92.003906 66.488281 C 99.664062 61.296875 107.027344 65.183594 107.613281 64.253906 C 101.8125 60.179688 96.082031 60.128906 90.648438 61.535156 C 80.0625 64.023438 79.628906 71.566406 66.378906 67.949219 Z M 84.542969 41.515625 C 83.21875 41.539062 80.21875 42.554688 76.390625 41.269531 C 70.171875 38.902344 67.363281 31.71875 53.625 31.921875 C 57.207031 37.105469 72.832031 47.941406 84.542969 41.515625 Z M 128 80.234375 C 121 78.355469 118.96875 67.929688 107.625 74.785156 C 116.59375 74.429688 116.59375 86.023438 128 80.234375 Z M 82.445312 55.515625 C 68.832031 55.898438 58.511719 43.792969 50.722656 33.464844 C 40.75 20.230469 20.332031 14.230469 0 27.964844 C 0 27.964844 13.722656 25.253906 15.5 45.25 C 16.5 56.488281 15.492188 60.035156 19.5 67.066406 C 30.375 86.148438 48.066406 81.421875 48.066406 81.421875 C 38.121094 80.003906 34.167969 73.105469 33 67.648438 C 32.417969 64.566406 34.449219 61.078125 39.566406 61.265625 C 44.773438 61.457031 48.714844 67.65625 55.351562 75.257812 C 64.507812 86.734375 78.175781 81.886719 87.910156 73.289062 C 87.414062 71.828125 82.75 74.160156 78.0625 74.105469 C 70.640625 74.019531 63.738281 72.320312 58.542969 68.640625 C 48.207031 60.605469 47.316406 50.070312 56.078125 50.792969 C 59.957031 51.023438 63.300781 55.992188 66.792969 57.566406 C 71.792969 59.816406 76.84375 59.140625 82.445312 55.515625 Z M 85.953125 107.785156 C 81.417969 105.691406 82.167969 96.855469 67.398438 97.734375 C 76.257812 99.898438 77.328125 108.621094 85.953125 107.785156 Z M 85.953125 107.785156 "/>
</g>
</svg>
